<svg width="1200px" height="300px" xmlns="http://www.w3.org/2000/svg" viewBox="-200.666455078125 -26.200000000000003 901.33291015625 202.4" style="background: rgba(0, 0, 0, 0);" preserveAspectRatio="xMidYMid"><defs><filter id="editing-vr"><feFlood flood-color="#f00" flood-opacity="0.7" result="c1"></feFlood><feFlood flood-color="#00f" flood-opacity="0.7" result="c3"></feFlood><feComposite operator="in" in="c1" in2="SourceAlpha" result="text-c1"></feComposite><feComposite operator="in" in="c3" in2="SourceAlpha" result="text-c3"></feComposite><feOffset in="text-c1" dx="5" dy="-1" result="text1"></feOffset><feOffset in="text-c3" dx="-5" dy="1" result="text3"></feOffset><feBlend in="SourceGraphic" in2="text1" mode="multiply" result="text4"></feBlend><feBlend in="text4" in2="text3" mode="multiply"></feBlend></filter></defs><g filter="url(#editing-vr)"><g transform="translate(-71.59085327386856, 115.36500072479248)"><path d="M0.81-0.58L0.81-0.58L15.29-75.90L15.29-75.90Q28.87-77.05 37.61-77.05L37.61-77.05L37.61-77.05Q46.34-77.05 51.98-76.30L51.98-76.30L51.98-76.30Q57.62-75.56 61.41-73.60L61.41-73.60L61.41-73.60Q69-69.92 69-59.80L69-59.80L69-59.80Q69-53.94 63.94-48.99L63.94-48.99L63.94-48.99Q59.23-44.51 54.05-43.47L54.05-43.47L54.05-43.47Q59.57-42.55 63.48-38.41L63.48-38.41L63.48-38.41Q67.62-34.04 67.62-27.26L67.62-27.26L67.62-27.26Q67.62-14.15 57.85-6.50L57.85-6.50L57.85-6.50Q48.07 1.15 28.87 1.15L28.87 1.15L28.87 1.15Q15.64 1.15 0.81-0.58ZM32.09-37.03L26.34-7.25L26.34-7.25Q27.37-7.13 27.60-7.13L27.60-7.13L28.64-7.13L28.64-7.13Q38.07-7.13 42.09-13.34L42.09-13.34L42.09-13.34Q45.08-18.17 45.08-27.03L45.08-27.03L45.08-27.03Q45.08-31.74 42.03-34.27L42.03-34.27L42.03-34.27Q38.98-36.80 32.09-37.03L32.09-37.03ZM49.57-59.69L49.57-59.69L49.57-59.69Q49.57-69.23 40.37-69.23L40.37-69.23L39.33-69.23L39.33-69.23Q38.87-69.23 38.18-69.12L38.18-69.12L33.58-44.85L34.73-44.85L34.73-44.85Q49.57-45.20 49.57-59.69ZM99.02 0L73.95 0L88.55-75.90L113.85-75.90L99.02 0ZM115.23-0.58L115.23-0.58L129.72-75.90L129.72-75.90Q143.29-77.05 152.03-77.05L152.03-77.05L152.03-77.05Q160.77-77.05 166.41-76.30L166.41-76.30L166.41-76.30Q172.04-75.56 175.84-73.60L175.84-73.60L175.84-73.60Q183.43-69.92 183.43-59.80L183.43-59.80L183.43-59.80Q183.43-53.94 178.37-48.99L178.37-48.99L178.37-48.99Q173.65-44.51 168.48-43.47L168.48-43.47L168.48-43.47Q174.00-42.55 177.91-38.41L177.91-38.41L177.91-38.41Q182.05-34.04 182.05-27.26L182.05-27.26L182.05-27.26Q182.05-14.15 172.27-6.50L172.27-6.50L172.27-6.50Q162.50 1.15 143.29 1.15L143.29 1.15L143.29 1.15Q130.06 1.15 115.23-0.58ZM146.51-37.03L140.76-7.25L140.76-7.25Q141.80-7.13 142.03-7.13L142.03-7.13L143.06-7.13L143.06-7.13Q152.49-7.13 156.52-13.34L156.52-13.34L156.52-13.34Q159.51-18.17 159.51-27.03L159.51-27.03L159.51-27.03Q159.51-31.74 156.46-34.27L156.46-34.27L156.46-34.27Q153.41-36.80 146.51-37.03L146.51-37.03ZM163.99-59.69L163.99-59.69L163.99-59.69Q163.99-69.23 154.79-69.23L154.79-69.23L153.75-69.23L153.75-69.23Q153.30-69.23 152.61-69.12L152.61-69.12L148.00-44.85L149.16-44.85L149.16-44.85Q163.99-45.20 163.99-59.69ZM237.71-17.71L237.71-17.71L237.71-17.71Q239.89-14.95 239.89-9.60L239.89-9.60L239.89-9.60Q239.89-4.25 235.81-0.98L235.81-0.98L235.81-0.98Q231.73 2.30 224.59 2.30L224.59 2.30L224.59 2.30Q220.46 2.30 214.02 1.38L214.02 1.38L214.02 1.38Q201.37-0.58 197.74-0.58L197.74-0.58L197.74-0.58Q194.12-0.58 192.63-0.40L192.63-0.40L192.63-0.40Q191.13-0.23 188.72 0L188.72 0L202.63-75.90L227.81-75.90L216.31-12.65L216.31-12.65Q217.81-12.42 219.19-12.42L219.19-12.42L222.06-12.42L222.06-12.42Q231.73-12.42 237.71-17.71ZM271.40 0L246.33 0L260.94-75.90L286.24-75.90L271.40 0ZM290.49-28.06L290.49-28.06L290.49-28.06Q290.49-49.80 301.76-63.48L301.76-63.48L301.76-63.48Q313.72-78.31 334.54-78.31L334.54-78.31L334.54-78.31Q349.60-78.31 357.19-71.01L357.19-71.01L357.19-71.01Q364.78-63.71 364.78-48.30L364.78-48.30L364.78-48.30Q364.78-24.84 352.82-11.16L352.82-11.16L352.82-11.16Q340.98 2.30 321.08 2.30L321.08 2.30L321.08 2.30Q305.56 2.30 298.02-5.46L298.02-5.46L298.02-5.46Q290.49-13.23 290.49-28.06ZM320.74-51.87L320.74-51.87L320.74-51.87Q315.56-31.17 315.56-14.84L315.56-14.84L315.56-14.84Q315.56-10.93 316.88-8.39L316.88-8.39L316.88-8.39Q318.20-5.87 321.71-5.87L321.71-5.87L321.71-5.87Q325.22-5.87 327.40-7.53L327.40-7.53L327.40-7.53Q329.59-9.20 331.31-13.00L331.31-13.00L331.31-13.00Q334.07-19.21 336.66-32.37L336.66-32.37L336.66-32.37Q339.25-45.54 339.48-51.00L339.48-51.00L339.48-51.00Q339.71-56.47 339.71-60.61L339.71-60.61L339.71-60.61Q339.71-64.75 338.44-67.39L338.44-67.39L338.44-67.39Q337.18-70.03 333.79-70.03L333.79-70.03L333.79-70.03Q330.39-70.03 328.10-67.97L328.10-67.97L328.10-67.97Q323.84-64.06 320.74-51.87ZM379.62-56.01L379.62-56.01L379.62-56.01Q375.71-59.00 375.71-65.38L375.71-65.38L375.71-65.38Q375.71-71.76 379.90-75.09L379.90-75.09L379.90-75.09Q384.10-78.43 391.35-78.43L391.35-78.43L391.35-78.43Q395.95-78.43 406.87-76.82L406.87-76.82L414.69-75.67L414.69-75.67Q418.60-75.21 422.68-75.21L422.68-75.21L422.68-75.21Q426.77-75.21 429.53-76.94L429.53-76.94L429.53-76.94Q433.67-73.26 433.67-67.97L433.67-67.97L433.67-67.97Q433.67-62.68 428.95-58.88L428.95-58.88L428.95-58.88Q424.12-54.86 417.91-54.86L417.91-54.86L417.91-54.86Q414.92-54.86 410.09-55.66L410.09-55.66L410.09-55.66Q404.46-37.95 404.46-25.64L404.46-25.64L404.46-25.64Q404.46-13.34 410.67-6.90L410.67-6.90L410.67-6.90Q407.79-1.73 403.54 0.29L403.54 0.29L403.54 0.29Q399.28 2.30 392.90 2.30L392.90 2.30L392.90 2.30Q386.52 2.30 382.55-1.21L382.55-1.21L382.55-1.21Q378.58-4.71 378.58-11.96L378.58-11.96L378.58-11.96Q378.58-20.36 383.18-34.16L383.18-34.16L383.18-34.16Q387.78-47.84 394.68-58.30L394.68-58.30L394.68-58.30Q391.35-58.65 387.90-58.65L387.90-58.65L387.90-58.65Q380.77-58.65 379.62-56.01ZM479.09-17.71L479.09-17.71L479.09-17.71Q481.28-14.95 481.28-10.46L481.28-10.46L481.28-10.46Q481.28-4.25 476.68-0.98L476.68-0.98L476.68-0.98Q472.08 2.30 464.83 2.30L464.83 2.30L464.83 2.30Q460.69 2.30 454.37 1.38L454.37 1.38L454.37 1.38Q441.95-0.58 438.15-0.58L438.15-0.58L438.15-0.58Q434.36-0.58 432.86-0.40L432.86-0.40L432.86-0.40Q431.37-0.23 428.95 0L428.95 0L443.10-75.90L492.66-75.90L492.66-75.90Q492.66-68.89 489.27-65.20L489.27-65.20L489.27-65.20Q485.88-61.53 479.21-61.53L479.21-61.53L479.21-61.53Q472.54-61.53 465.75-64.63L465.75-64.63L462.19-44.51L482.66-44.51L482.66-44.51Q482.66-38.41 479.67-35.02L479.67-35.02L479.67-35.02Q476.68-31.63 471.67-31.63L471.67-31.63L471.67-31.63Q466.67-31.63 463.57-32.77L463.57-32.77L463.57-32.77Q460.46-33.93 460.12-34.27L460.12-34.27L455.98-12.54L455.98-12.54Q458.74-12.19 463.91-12.19L463.91-12.19L463.91-12.19Q472.77-12.19 479.09-17.71ZM551.88-23.80L551.88-23.80L551.88-23.80Q554.88-21.62 554.88-16.96L554.88-16.96L554.88-16.96Q554.88-12.30 552.86-9.03L552.86-9.03L552.86-9.03Q550.85-5.75 546.94-3.22L546.94-3.22L546.94-3.22Q538.55 2.19 523.88 2.19L523.88 2.19L523.88 2.19Q509.22 2.19 501.23-5.46L501.23-5.46L501.23-5.46Q493.24-13.11 493.24-26.68L493.24-26.68L493.24-26.68Q493.24-45.89 503.24-60.49L503.24-60.49L503.24-60.49Q510.83-71.30 524.40-75.90L524.40-75.90L524.40-75.90Q531.42-78.20 538.32-78.20L538.32-78.20L538.32-78.20Q545.22-78.20 549.47-77.28L549.47-77.28L549.47-77.28Q553.73-76.36 556.95-74.52L556.95-74.52L556.95-74.52Q563.96-70.50 563.96-64.06L563.96-64.06L563.96-64.06Q563.96-58.19 558.44-53.82L558.44-53.82L558.44-53.82Q553.38-49.91 549.24-49.91L549.24-49.91L549.24-49.91Q545.10-49.91 543.38-50.48L543.38-50.48L543.38-50.48Q543.84-54.63 543.84-57.33L543.84-57.33L543.84-57.33Q543.84-60.03 543.72-61.98L543.72-61.98L543.72-61.98Q543.61-63.94 543.03-65.78L543.03-65.78L543.03-65.78Q541.88-70.03 538.37-70.03L538.37-70.03L538.37-70.03Q534.87-70.03 531.36-66.76L531.36-66.76L531.36-66.76Q527.85-63.48 524.86-57.96L524.86-57.96L524.86-57.96Q518.08-45.43 518.08-30.59L518.08-30.59L518.08-30.59Q518.08-23.46 522.10-19.38L522.10-19.38L522.10-19.38Q526.13-15.29 534.75-15.29L534.75-15.29L534.75-15.29Q541.19-15.29 547.29-19.55L547.29-19.55L547.29-19.55Q549.93-21.39 551.88-23.80ZM587.88 0L563.38 0L576.50-69.92L577.76-75.90L602.37-75.90L587.88 0ZM634.57-6.79L634.57-6.79L634.57-6.79Q631.47 2.30 619.50 2.30L619.50 2.30L619.50 2.30Q610.65 2.30 604.56-8.28L604.56-8.28L604.56-8.28Q598.35-18.86 597.20-36.11L597.20-36.11L597.20-36.11Q609.85-59.23 618.59-68.77L618.59-68.77L618.59-68.77Q626.98-77.86 635.72-77.86L635.72-77.86L635.72-77.86Q640.44-77.86 643.83-75.33L643.83-75.33L643.83-75.33Q647.22-72.80 648.03-68.77L648.03-68.77L648.03-68.77Q644.12-67.16 642.28-65.89L642.28-65.89L642.28-65.89Q637.68-62.45 631.47-54.74L631.47-54.74L621-42.20L621-42.20Q618.47-39.22 617.44-37.84L617.44-37.84L617.44-37.84Q619.16-28.18 624.34-18.63L624.34-18.63L624.34-18.63Q629.28-9.54 634.57-6.79Z" fill="#444"></path></g></g><style>text {
  font-size: 150px;
  font-family: Arial Black;
  dominant-baseline: central;
  text-anchor: middle;
}</style></svg>